<svg width="16" height="16" fill="none">
  <path d="M2 16h9.333a2 2 0 0 0 2-2V8.987a.667.667 0 1 0-1.333 0V14a.666.666 0 0 1-.667.667H2A.667.667 0 0 1 1.333 14V4A.667.667 0 0 1 2 3.333h5.68A.667.667 0 1 0 7.68 2H2a2 2 0 0 0-2 2v10a2 2 0 0 0 2 2Z" fill="#fff"/>
  <path d="M14.05.007a1.712 1.712 0 0 0-1.365.481L6.733 6.437a.662.662 0 0 0-.19.392l-.254 2.14a.666.666 0 0 0 .74.74l2.14-.254a.662.662 0 0 0 .392-.19l5.949-5.948a1.72 1.72 0 0 0 .48-1.367 2.12 2.12 0 0 0-.623-1.317 2.12 2.12 0 0 0-1.316-.626Zm.52 2.366L8.785 8.16l-1.07.126.127-1.066 5.786-5.786c.217-.219.615-.038.796.14.18.179.367.58.146.8Z" fill="#fff"/>
</svg>
