<svg width="16" height="16" fill="none">
  <g fill="#fff" clip-path="url(#a)">
    <path d="M4.224 2.772a.962.962 0 0 0 .952-.97c0-.358-.423-1.161-.705-1.657a.283.283 0 0 0-.494 0c-.282.496-.705 1.299-.705 1.656 0 .536.426.971.952.971Zm3.776 0a.962.962 0 0 0 .952-.97c0-.358-.423-1.161-.705-1.657a.283.283 0 0 0-.494 0c-.282.496-.705 1.299-.705 1.656 0 .536.426.971.952.971Zm3.776 0a.962.962 0 0 0 .952-.97c0-.358-.423-1.161-.705-1.657a.283.283 0 0 0-.494 0c-.282.496-.705 1.299-.705 1.656 0 .536.426.971.952.971ZM3.7 3.57a.426.426 0 0 0-.422.43v3.47H5.17V4a.426.426 0 0 0-.422-.43H3.7Zm3.776 0a.426.426 0 0 0-.422.43v3.47h1.892V4a.426.426 0 0 0-.422-.43H7.476Zm3.776 0a.426.426 0 0 0-.422.43v3.47h1.892V4a.426.426 0 0 0-.422-.43h-1.048ZM2.07 11.189a.8.8 0 0 0 .232-.035l1.184-.357a4.137 4.137 0 0 1 2.387 0l.934.282a4.137 4.137 0 0 0 2.386 0l.934-.282a4.137 4.137 0 0 1 2.387 0l1.184.357a.803.803 0 0 0 .232.035c.378 0 .712-.27.712-.63v-1.23c0-.409-.376-.74-.84-.74H2.198c-.463 0-.839.331-.839.74v1.232c0 .359.334.629.712.629Zm13.461 3.855h-1.28v-2.93a1.718 1.718 0 0 1-.82-.043l-1.183-.357a3.206 3.206 0 0 0-1.854 0l-.934.282a5.05 5.05 0 0 1-2.92 0l-.934-.282a3.207 3.207 0 0 0-1.854 0l-1.183.357a1.723 1.723 0 0 1-.82.043v2.93H.468a.473.473 0 0 0-.469.478c0 .264.21.478.469.478H15.53a.473.473 0 0 0 .469-.478.473.473 0 0 0-.469-.478Z"/>
  </g>
</svg>
