<svg width="16" height="16" fill="none">
  <path d="M3.781 4.538a.468.468 0 0 0-.717.066A5.958 5.958 0 0 0 2.008 8 5.998 5.998 0 0 0 8 13.992c1.22 0 2.395-.365 3.396-1.056a.469.469 0 0 0 .066-.717L3.78 4.539ZM8 13.054a5.06 5.06 0 0 1-4.461-7.432l6.839 6.839c-.729.39-1.54.593-2.378.593Z" fill="#fff"/>
  <path d="M13.657 2.343A7.948 7.948 0 0 0 8 0a7.948 7.948 0 0 0-5.657 2.343A7.948 7.948 0 0 0 0 8c0 2.137.832 4.146 2.343 5.657A7.948 7.948 0 0 0 8 16a7.948 7.948 0 0 0 5.657-2.343A7.948 7.948 0 0 0 16 8a7.948 7.948 0 0 0-2.343-5.657ZM8 15.063A7.07 7.07 0 0 1 .937 8 7.07 7.07 0 0 1 8 .937 7.07 7.07 0 0 1 15.063 8 7.07 7.07 0 0 1 8 15.063Z" fill="#fff"/>
  <path d="M8 2.008c-1.22 0-2.395.365-3.396 1.056a.469.469 0 0 0-.066.717l7.68 7.68a.468.468 0 0 0 .718-.065A5.958 5.958 0 0 0 13.992 8 5.998 5.998 0 0 0 8 2.008Zm4.46 8.37L5.623 3.539a5.06 5.06 0 0 1 6.839 6.839Z" fill="#fff"/>
</svg>
