<svg width="13" height="16" fill="none">
  <path d="M11 16c-.385 0-.758-.136-1.053-.384l-3.63-3.052-3.63 3.052a1.637 1.637 0 0 1-1.742.231A1.64 1.64 0 0 1 0 14.365V2.88C0 2.11.3 1.388.843.844A2.86 2.86 0 0 1 2.88 0h6.876c.77 0 1.492.3 2.036.843a2.86 2.86 0 0 1 .843 2.036v11.486A1.64 1.64 0 0 1 11 16Zm-4.683-4.68a.54.54 0 0 1 .347.126l3.978 3.345a.558.558 0 0 0 .914-.426V2.88c0-.48-.187-.933-.527-1.273a1.789 1.789 0 0 0-1.274-.527H2.88c-.48 0-.933.187-1.273.527A1.79 1.79 0 0 0 1.08 2.88v11.485a.558.558 0 0 0 .914.426l3.977-3.345a.54.54 0 0 1 .347-.126Z" fill="#fff"/>
</svg>
