<svg width="21" height="16" fill="none">
  <path d="M10.062 6.09c-1.668-.016-3.065 1.338-3.08 2.99-.016 1.71 1.33 3.12 3.001 3.14 1.692.019 3.112-1.331 3.132-2.983.024-1.75-1.315-3.128-3.053-3.147Z" fill="#fff"/>
  <path d="M20.085 5.92c-.004-1.016-.448-1.836-1.244-2.456-.566-.44-1.213-.64-1.927-.64-.817.004-1.629 0-2.469 0-.082-.463-.153-.902-.239-1.342-.169-.835-.946-1.48-1.793-1.48a929.314 929.314 0 0 0-4.678 0A1.88 1.88 0 0 0 5.87 1.554a18.2 18.2 0 0 0-.161.962c-.032.239-.126.33-.38.321a74.093 74.093 0 0 0-2.261 0C1.385 2.852 0 4.253 0 5.936v6.939c0 1.703 1.381 3.112 3.08 3.116 4.647.011 9.293.011 13.936.004 1.68-.004 3.065-1.421 3.069-3.105a852.3 852.3 0 0 0 0-6.97Zm-10.023 7.857c-2.594 0-4.65-2.076-4.643-4.685.008-2.52 2.112-4.572 4.67-4.56 2.543.015 4.584 2.087 4.58 4.65-.004 2.52-2.088 4.595-4.607 4.595Zm6.628-7.009a.841.841 0 0 1-.848-.835v-.016a.85.85 0 0 1 .836-.824c.49-.008.848.341.852.828a.816.816 0 0 1-.84.847Z" fill="#fff"/>
</svg>
