<svg width="16" height="16" fill="none">
  <path fill="#fff" d="M5.212 16a.328.328 0 0 1-.174-.05.369.369 0 0 1-.128-.139C3.598 13.373.103 8.185.068 8.132a.408.408 0 0 1 .036-.499L1.18 6.475a.33.33 0 0 1 .448-.042l3.51 2.677c2.336-3.274 4.507-5.533 5.933-6.864C12.672.753 13.688.083 13.731.055A.33.33 0 0 1 13.91 0h1.738a.33.33 0 0 1 .2.068.38.38 0 0 1 .128.179c.025.072.03.151.013.227a.39.39 0 0 1-.108.195c-2.576 2.503-5.255 6.482-7.048 9.378a101.838 101.838 0 0 0-3.317 5.76.369.369 0 0 1-.127.14.33.33 0 0 1-.175.053h-.003Z"/>
</svg>
