<svg width="16" height="16" fill="none">
  <path fill="#fff" d="M15.898 7.689C15.755 7.493 12.35 2.9 8 2.9S.244 7.493.102 7.69a.528.528 0 0 0 0 .622C.244 8.507 3.65 13.1 8 13.1s7.755-4.592 7.898-4.788a.527.527 0 0 0 0-.622ZM8 12.044c-3.204 0-5.98-3.048-6.8-4.044.82-.998 3.589-4.044 6.8-4.044 3.204 0 5.979 3.047 6.8 4.044-.82.998-3.59 4.044-6.8 4.044Z"/>
  <path fill="#fff" d="M8 4.835A3.168 3.168 0 0 0 4.835 8 3.169 3.169 0 0 0 8 11.165 3.169 3.169 0 0 0 11.165 8 3.169 3.169 0 0 0 8 4.835Zm0 5.275A2.112 2.112 0 0 1 5.89 8c0-1.163.947-2.11 2.11-2.11 1.163 0 2.11.947 2.11 2.11 0 1.163-.947 2.11-2.11 2.11Z"/>
</svg>
