<svg width="16" height="16" fill="none">
  <rect width="16" height="16" fill="#fff" rx="3"/>
  <path fill="#141415" d="m12.49 4.28-1.688.621a.236.236 0 0 0-.102.075.289.289 0 0 0-.048.256.265.265 0 0 0 .068.113l.178.176-2.27 2.835-1.465-1.514a.614.614 0 0 0-.466-.193.624.624 0 0 0-.453.23l-2.862 3.413a.737.737 0 0 0-.138.24.794.794 0 0 0 .014.559.724.724 0 0 0 .15.231.642.642 0 0 0 .218.15.593.593 0 0 0 .502-.025.66.66 0 0 0 .206-.17l2.42-2.885 1.475 1.525a.643.643 0 0 0 .22.149.59.59 0 0 0 .503-.026.66.66 0 0 0 .206-.172l2.712-3.386.178.176c.031.03.069.052.11.061a.2.2 0 0 0 .121-.008.235.235 0 0 0 .102-.074.274.274 0 0 0 .055-.121l.36-1.935a.288.288 0 0 0-.008-.135.265.265 0 0 0-.067-.113.228.228 0 0 0-.11-.061.213.213 0 0 0-.121.008Z"/>
</svg>
