<svg width="16" height="16" fill="none">
  <path fill="#fff" d="M5.27 0H1.724C.772 0 0 .772 0 1.725v3.544c0 .953.772 1.725 1.725 1.725h3.544c.953 0 1.725-.772 1.725-1.725V1.725C6.994.772 6.222 0 5.269 0Zm0 9.006H1.724C.772 9.006 0 9.778 0 10.731v3.544C0 15.228.772 16 1.725 16h3.544c.953 0 1.725-.772 1.725-1.725v-3.544c0-.953-.772-1.725-1.725-1.725ZM14.275 0h-3.544c-.953 0-1.725.772-1.725 1.725v3.544c0 .953.772 1.725 1.725 1.725h3.544c.953 0 1.725-.772 1.725-1.725V1.725C16 .772 15.228 0 14.275 0Zm0 9.006h-3.544c-.953 0-1.725.772-1.725 1.725v3.544c0 .953.772 1.725 1.725 1.725h3.544c.953 0 1.725-.772 1.725-1.725v-3.544c0-.953-.772-1.725-1.725-1.725Z"/>
</svg>
