<svg width="16" height="16" fill="none">
  <path fill="#fff" d="M6.082 3.257a.562.562 0 0 1-.705.358l-.43-.131c-1.62.989-2.697 2.741-2.697 4.738 0 3.088 2.574 5.591 5.75 5.591s5.751-2.503 5.751-5.59c0-3.089-2.575-5.592-5.75-5.592-.671 0-1.315.112-1.913.318a.528.528 0 0 1-.006.308Zm.563 1.756c0-.302.252-.547.563-.547.31 0 .563.245.563.547v2.978c0 .245.205.445.458.445h2.042c.31 0 .563.245.563.547a.555.555 0 0 1-.563.547H8.229c-.873 0-1.584-.69-1.584-1.54V5.014Z"/>
  <path fill="#fff" d="M13.657 2.722A8.065 8.065 0 0 0 8 .445a8.18 8.18 0 0 0-3.352.714l.166-.413a.542.542 0 0 0-.32-.708.568.568 0 0 0-.728.31l-.694 1.726a.732.732 0 0 0 .022.596.767.767 0 0 0 .464.39l1.39.424a5.808 5.808 0 0 1 1.14-.535.554.554 0 0 0-.374-.378l-.898-.274A7.013 7.013 0 0 1 8 1.54a6.93 6.93 0 0 1 4.86 1.957 6.547 6.547 0 0 1 2.014 4.726 6.548 6.548 0 0 1-2.013 4.726A6.93 6.93 0 0 1 8 14.906a6.93 6.93 0 0 1-4.86-1.958 6.547 6.547 0 0 1-1.276-7.742.54.54 0 0 0-.248-.736.57.57 0 0 0-.756.24A7.52 7.52 0 0 0 0 8.223c0 2.078.832 4.03 2.343 5.5A8.064 8.064 0 0 0 8 16c2.137 0 4.146-.81 5.657-2.278C15.167 12.252 16 10.3 16 8.222c0-2.077-.832-4.03-2.343-5.5Z"/>
</svg>
