<svg width="16" height="16" fill="none">
  <path fill="#fff" d="M9.793 3.356c-.31-.348-.793-.548-1.326-.548-.951 0-1.802.65-1.896 1.448-.042.366.072.72.32 1 .305.341.784.537 1.314.537.976 0 1.813-.636 1.907-1.448a1.254 1.254 0 0 0-.32-.989Zm-.444.9c-.048.417-.572.77-1.144.77-.307 0-.584-.106-.74-.282a.494.494 0 0 1-.13-.399c.047-.41.577-.77 1.132-.77.309 0 .59.11.752.291.07.08.151.213.13.39Zm.081 7.29c-.096-.064-.32-.215-.14-1.261l.052-.238c.064-.299.184-.855.314-1.475l.001-.004c.133-.67.028-1.256-.304-1.695-.3-.396-.775-.639-1.336-.683-.831-.067-1.7.429-1.966.917a.475.475 0 0 0-.018.478.611.611 0 0 0 .202.21c.095.066.316.223.106 1.267-.02.096-.313 1.584-.351 1.796l-.001.004c-.115.673-.001 1.261.348 1.686.564.684 1.421.652 1.455.652.799 0 1.597-.497 1.84-.972a.475.475 0 0 0 .006-.478c-.06-.104-.146-.162-.208-.204Zm-.526-3.13a279.984 279.984 0 0 1-.369 1.73v.003c-.196 1.12.002 1.611.281 1.886-.076.068-.18.142-.31.208-.255.131-.537.2-.774.187-.346-.019-.62-.143-.794-.361-.203-.253-.27-.625-.192-1.075.041-.227.335-1.717.347-1.776v-.004c.225-1.115.04-1.61-.231-1.892a1.51 1.51 0 0 1 .315-.2c.258-.125.542-.185.779-.167.345.028.616.16.784.382.196.258.252.632.164 1.08Z"/>
  <path fill="#fff" d="M14.363 12.342C15.42 11.074 16 9.508 16 7.906c0-1.962-.837-3.804-2.356-5.187C12.134 1.344 10.13.588 8 .588c-2.13 0-4.135.756-5.644 2.13C.836 4.103 0 5.945 0 7.907c0 1.962.837 3.804 2.356 5.188 1.51 1.374 3.514 2.13 5.644 2.13a8.602 8.602 0 0 0 3.808-.88l2.789 1.044a.383.383 0 0 0 .503-.465l-.737-2.58Zm-2.444 1.223a.384.384 0 0 0-.312.02A7.815 7.815 0 0 1 8 14.457c-3.988 0-7.232-2.939-7.232-6.55C.768 4.293 4.012 1.355 8 1.355s7.232 2.938 7.232 6.55c0 1.503-.547 2.917-1.583 4.089a.384.384 0 0 0-.081.36l.585 2.047-2.234-.837Z"/>
</svg>
