<svg width="16" height="16" fill="none">
  <path fill="#fff" d="M12.549 4.877h-.457v-1.97C12.092 1.304 10.688 0 8.962 0H7.038c-1.726 0-3.13 1.304-3.13 2.907v1.97H3.45C2.1 4.877 1 5.897 1 7.153v6.571C1 14.98 2.1 16 3.451 16h9.098C13.9 16 15 14.979 15 13.724V7.153c0-1.255-1.1-2.276-2.451-2.276Zm-7.824-1.97c0-1.185 1.037-2.148 2.313-2.148h1.924c1.276 0 2.313.963 2.313 2.148v1.97h-6.55v-1.97Zm9.458 10.817c0 .837-.733 1.517-1.634 1.517H3.45c-.9 0-1.634-.68-1.634-1.517V7.153c0-.837.733-1.517 1.634-1.517h9.098c.9 0 1.634.68 1.634 1.517v6.571Z"/>
  <path fill="#fff" d="M8 8.123c-.71 0-1.286.517-1.286 1.154 0 .508.368.94.877 1.094v.94c0 .202.183.366.409.366.226 0 .409-.164.409-.366v-.94c.509-.154.877-.586.877-1.094 0-.637-.577-1.154-1.286-1.154Zm.409 1.36v-.206c0-.203-.183-.367-.409-.367-.226 0-.409.164-.409.367v.206a.385.385 0 0 1-.06-.206c0-.232.21-.421.469-.421s.469.189.469.42a.385.385 0 0 1-.06.207Z"/>
</svg>
