<svg width="16" height="16" fill="none">
  <path fill="#fff" d="M10.233 0H5.767C1.724 0 0 1.725 0 5.767v4.466C0 14.275 1.724 16 5.767 16h4.466C14.276 16 16 14.275 16 10.233V5.767C16 1.725 14.276 0 10.233 0Zm4.65 10.233c0 3.433-1.217 4.65-4.65 4.65H5.767c-2.051 0-3.307-.44-3.99-1.521l3.255-2.184a1.11 1.11 0 0 1 1.29.063l.248.213a2.215 2.215 0 0 0 2.828 0l3.096-2.657a1.103 1.103 0 0 1 1.374 0l1.017.873-.001.563Zm0-2.034-.29-.25a2.214 2.214 0 0 0-2.828 0L8.67 10.605a1.103 1.103 0 0 1-1.373 0l-.247-.213a2.219 2.219 0 0 0-2.64-.142l-3.072 2.066a8.335 8.335 0 0 1-.223-2.083V5.767c.001-3.433 1.219-4.65 4.652-4.65h4.466c3.433 0 4.65 1.217 4.65 4.65V8.2ZM5.768 2.977a2.047 2.047 0 1 0 0 4.093 2.047 2.047 0 0 0 0-4.093Zm0 2.976a.93.93 0 1 1 0-1.86.93.93 0 0 1 0 1.86Z"/>
</svg>
