<svg width="16" height="19" fill="none">
  <path fill="#fff" d="M14.44 13.769h-.47V9.407a1.781 1.781 0 0 1-1.766 0 1.764 1.764 0 0 1-.884-1.53v-.271h-.27a1.762 1.762 0 0 1-.706-3.379c.217-.1.452-.153.705-.153h.271v-.265c0-.318.088-.618.236-.877-.707-.554-1.272-.795-1.307-.813a6.269 6.269 0 0 0-1.704-.484V.883a.883.883 0 0 0-1.766 0v.752C3.719 2.07 1.354 4.7 1.354 7.876v5.893H.883a.882.882 0 1 0 0 1.766H14.44a.882.882 0 1 0 0-1.766Zm-6.776 4.48c1.29 0 2.402-.748 2.926-1.831H4.733a3.261 3.261 0 0 0 2.931 1.83Z"/>
  <path fill="#fff" d="M15.117 4.957h-1.148V3.809c0-.489-.4-.883-.883-.883a.871.871 0 0 0-.836.606.881.881 0 0 0-.047.277v1.148H11.05a.882.882 0 1 0 0 1.766h1.154v1.153a.882.882 0 1 0 1.766 0V6.723h1.148a.882.882 0 1 0 0-1.766Z"/>
</svg>
