<svg width="15" height="16" fill="none">
  <path d="M13.212 13.818H1.333a1.334 1.334 0 0 1-.8-2.4l.6-.449c.225-.168.376-.418.421-.695l.752-4.562a5.026 5.026 0 0 1 9.934.004l.751 4.558c.045.277.197.527.422.695l.599.45a1.333 1.333 0 0 1-.8 2.4ZM7.273 2.182a4.275 4.275 0 0 0-4.25 3.644l-.751 4.566a1.81 1.81 0 0 1-.703 1.159l-.6.449a.606.606 0 0 0 .364 1.09h11.88a.607.607 0 0 0 .363-1.09l-.6-.45a1.81 1.81 0 0 1-.702-1.158l-.752-4.562a4.276 4.276 0 0 0-4.249-3.648Z" fill="#fff"/>
  <path d="M8.364 2.313A.364.364 0 0 1 8 1.949v-.494a.727.727 0 1 0-1.455 0v.494a.364.364 0 1 1-.727 0v-.494a1.455 1.455 0 1 1 2.91 0v.494a.364.364 0 0 1-.364.364ZM7.273 16a2.549 2.549 0 0 1-2.546-2.546.364.364 0 0 1 .728 0 1.818 1.818 0 0 0 3.636 0 .364.364 0 0 1 .727 0A2.548 2.548 0 0 1 7.273 16Z" fill="#fff"/>
</svg>
