<svg width="16" height="16" fill="none">
  <path d="M15.78 14.72 1.28.22A.75.75 0 1 0 .219 1.281l2.303 2.303A5.893 5.893 0 0 0 2 6v3.35c0 .735-.254 1.456-.715 2.031l-1.12 1.4A.75.75 0 0 0 .75 14h3.94c.632 1.214 1.9 2 3.31 2 1.41 0 2.678-.786 3.31-2h1.63l1.78 1.78a.748.748 0 0 0 1.06 0 .749.749 0 0 0 0-1.06ZM8 14.5a2.225 2.225 0 0 1-1.391-.5h2.782c-.387.309-.868.5-1.391.5Zm-5.689-2 .145-.181A4.763 4.763 0 0 0 3.5 9.35V6c0-.431.067-.849.186-1.253l7.753 7.753H2.311ZM4.514 2.013A.75.75 0 0 1 4.728.974 5.927 5.927 0 0 1 8 0c3.309 0 6 2.691 6 6v3.35c0 .106.008.205.017.311l-1.495.128a5.584 5.584 0 0 1-.022-.439V6c0-2.481-2.019-4.5-4.5-4.5-.879 0-1.726.251-2.447.727a.751.751 0 0 1-1.039-.214Z" fill="#fff"/>
</svg>
