<svg width="16" height="14" fill="none">
  <path fill="#fff" d="M13.407 0H2.593A2.602 2.602 0 0 0 0 2.6v7.853a2.596 2.596 0 0 0 2.593 2.594h10.814A2.596 2.596 0 0 0 16 10.453V2.6C16 1.167 14.833 0 13.407 0ZM4.54 10.38H3.333a.664.664 0 0 1-.666-.667c0-.366.3-.666.666-.666H4.54c.373 0 .667.3.667.666a.66.66 0 0 1-.667.667Zm1.42-2.704H3.333a.664.664 0 0 1-.666-.667c0-.367.3-.667.666-.667H5.96c.367 0 .667.3.667.667 0 .373-.3.667-.667.667Zm7.373-1.363c0 .6-.486 1.087-1.086 1.087H10.42c-.6 0-1.087-.487-1.087-1.087V3.76c0-.6.487-1.093 1.087-1.093h1.827c.6 0 1.086.493 1.086 1.093v2.553Z"/>
</svg>
