<svg width="19" height="16" fill="none">
  <path fill="#fff" d="M17.982 13.526H1.018c-.27 0-.529.13-.72.362a1.39 1.39 0 0 0-.298.875c0 .328.107.643.298.875.191.232.45.362.72.362h16.964c.27 0 .529-.13.72-.362a1.39 1.39 0 0 0 .298-.875c0-.328-.107-.643-.298-.875a.936.936 0 0 0-.72-.362ZM1.018 2.474h16.964c.27 0 .529-.13.72-.362A1.39 1.39 0 0 0 19 1.237c0-.328-.107-.643-.298-.875a.936.936 0 0 0-.72-.362H1.018c-.27 0-.529.13-.72.362C.108.594 0 .91 0 1.237c0 .328.107.643.298.875.191.232.45.362.72.362Zm0 6.763H13.89c.27 0 .53-.13.72-.362.191-.232.298-.547.298-.875 0-.328-.107-.643-.298-.875a.936.936 0 0 0-.72-.362H1.018c-.27 0-.529.13-.72.362A1.39 1.39 0 0 0 0 8c0 .328.107.643.298.875.191.232.45.362.72.362Zm16.286.825C18.24 10.062 19 9.139 19 8c0-1.139-.76-2.062-1.696-2.062-.937 0-1.697.923-1.697 2.062 0 1.139.76 2.062 1.697 2.062Z"/>
</svg>
