<svg width="16" height="16" fill="none">
  <path d="m1.879 10.521.008.017a1.384 1.384 0 0 1-.281 1.514l-.434.434 2.342 2.342.434-.433a1.384 1.384 0 0 1 1.514-.282c.006 0 .011.006.017.008.518.216.866.707.866 1.267V16h3.31v-.612c0-.56.348-1.054.866-1.267.006 0 .011-.005.017-.008a1.384 1.384 0 0 1 1.514.282l.434.433 2.342-2.342-.433-.434a1.384 1.384 0 0 1-.282-1.514c0-.006.006-.011.008-.017a1.377 1.377 0 0 1 1.267-.866H16v-3.31h-.612c-.56 0-1.054-.348-1.267-.866 0-.006-.005-.011-.008-.017a1.384 1.384 0 0 1 .282-1.514l.433-.434-2.342-2.342-.434.434a1.384 1.384 0 0 1-1.514.28c-.006 0-.011-.005-.017-.007A1.377 1.377 0 0 1 9.655.612V0h-3.31v.612c0 .56-.348 1.054-.866 1.267-.006 0-.011.005-.017.008a1.384 1.384 0 0 1-1.514-.281l-.434-.434-2.342 2.342.434.434c.397.397.496.995.28 1.514 0 .006-.005.011-.007.017a1.377 1.377 0 0 1-1.267.866H0v3.31h.612c.56 0 1.054.348 1.267.866ZM8 3.311a4.69 4.69 0 1 1 0 9.378A4.69 4.69 0 0 1 8 3.31Z" fill="#fff"/>
</svg>
