<svg width="16" height="16" fill="none">
  <path fill="#fff" d="M8 0c.28 0 .534.158.655.41l2.08 4.283 4.644.685c.273.04.5.23.585.494a.73.73 0 0 1-.178.743l-3.369 3.34.795 4.718a.733.733 0 0 1-.291.713.724.724 0 0 1-.767.051L8 13.218l-4.15 2.216a.723.723 0 0 1-.767-.051.735.735 0 0 1-.294-.713l.794-4.717L.215 6.615a.726.726 0 0 1-.179-.743.733.733 0 0 1 .585-.494l4.645-.685L7.346.409A.728.728 0 0 1 8 0Zm0 2.395-1.59 3.28a.735.735 0 0 1-.55.403l-3.586.528 2.605 2.58a.73.73 0 0 1 .206.637l-.616 3.628 3.19-1.703a.722.722 0 0 1 .685 0l3.19 1.703-.613-3.625a.721.721 0 0 1 .206-.637l2.604-2.58-3.586-.53a.733.733 0 0 1-.55-.404L8 2.395Z"/>
</svg>
