<svg width="15" height="16" fill="none">
  <path fill="#fff" fill-rule="evenodd" d="M10.182 3.636a3.636 3.636 0 1 1-7.273 0 3.636 3.636 0 0 1 7.273 0ZM5.09 8.727A5.09 5.09 0 0 0 0 13.818C0 15.023.977 16 2.182 16H7.57c.315 0 .493-.384.33-.653a4.343 4.343 0 0 1-.627-2.256c0-1.48.736-2.787 1.862-3.576.264-.185.242-.61-.074-.677A5.113 5.113 0 0 0 8 8.728H5.09Zm6.545 1.455c.402 0 .728.325.728.727v1.455h1.454a.727.727 0 1 1 0 1.454h-1.454v1.455a.727.727 0 0 1-1.455 0v-1.455H9.455a.727.727 0 1 1 0-1.454h1.454v-1.455c0-.402.326-.727.727-.727Z" clip-rule="evenodd"/>
</svg>
