<svg width="16" height="16" fill="none">
  <path fill="#fff" d="M2.88 3.282a3.282 3.282 0 1 1 6.563 0 3.282 3.282 0 0 1-6.564 0ZM8.696 13.39a1.559 1.559 0 0 1-.418-1.624 1.577 1.577 0 0 1 1.296-1.091l1.026-.148s.164-.016.213-.115l.328-.656a.271.271 0 0 0 .033-.156.26.26 0 0 0-.066-.123 4.336 4.336 0 0 0-3.314-1.272H4.513C1.182 8.205 0 10.642 0 12.735c0 1.87.993 2.854 2.872 2.854h6.227c.132 0 .215-.098.255-.311l.164-.944a.228.228 0 0 0-.074-.221l-.747-.723Zm7.194-.886a.358.358 0 0 0-.203-.612l-1.635-.232a.365.365 0 0 1-.274-.196l-.71-1.405a.394.394 0 0 0-.7 0l-.709 1.405a.366.366 0 0 1-.275.196l-1.634.232a.356.356 0 0 0-.203.612l1.182 1.127a.354.354 0 0 1 .105.318l-.27 1.542a.39.39 0 0 0 .568.405l1.417-.73a.37.37 0 0 1 .34 0l1.417.73a.39.39 0 0 0 .566-.404l-.268-1.544a.356.356 0 0 1 .105-.318l1.18-1.126Z"/>
</svg>
