<svg width="16" height="17" fill="none">
  <path fill="#fff" fill-rule="evenodd" d="m6.664.062.467 1.23c.014.036.046.06.086.062l1.313.064c.09.004.126.117.056.173l-1.025.824a.095.095 0 0 0-.032.1l.345 1.27a.097.097 0 0 1-.148.106l-1.1-.72a.095.095 0 0 0-.106 0l-1.1.72a.097.097 0 0 1-.147-.106l.345-1.27a.095.095 0 0 0-.033-.1L4.56 1.59a.097.097 0 0 1 .056-.173l1.313-.064a.096.096 0 0 0 .087-.063L6.482.062a.097.097 0 0 1 .182 0Zm6.35 10.41a2.987 2.987 0 1 1 0 5.974 2.987 2.987 0 0 1 0-5.974Zm-.393 3.25-.667-.667a.443.443 0 0 0-.627.627l.982.981a.443.443 0 0 0 .626 0c.592-.591 1.177-1.19 1.766-1.784a.442.442 0 0 0-.628-.623l-1.452 1.466Zm-10.963 1.12H9.76a3.524 3.524 0 0 1-.282-1.383c0-.747.232-1.44.627-2.01a5.312 5.312 0 0 0-8.759 3.022.315.315 0 0 0 .312.372Zm4.915-10.45a2.685 2.685 0 1 1 0 5.37 2.685 2.685 0 0 1 0-5.37Zm4.615-2.589a.097.097 0 0 0-.182 0l-.467 1.23a.095.095 0 0 1-.086.062l-1.313.064a.097.097 0 0 0-.056.173l1.024.823a.095.095 0 0 1 .033.102l-.345 1.268a.097.097 0 0 0 .147.107l1.1-.72a.095.095 0 0 1 .107 0l1.1.72c.075.05.17-.02.147-.107l-.345-1.268a.095.095 0 0 1 .033-.102l1.025-.823a.097.097 0 0 0-.056-.173l-1.314-.064a.096.096 0 0 1-.086-.063l-.466-1.229Zm-9.048 0a.097.097 0 0 0-.181 0l-.467 1.23a.095.095 0 0 1-.086.062l-1.313.064a.097.097 0 0 0-.057.173l1.025.823a.095.095 0 0 1 .033.102L.75 5.524a.097.097 0 0 0 .147.107l1.1-.72a.095.095 0 0 1 .107 0l1.1.72c.075.05.17-.02.147-.107l-.345-1.268a.095.095 0 0 1 .033-.102l1.025-.823a.097.097 0 0 0-.057-.173l-1.313-.064a.096.096 0 0 1-.086-.063L2.14 1.802Z" clip-rule="evenodd"/>
</svg>
