<svg viewBox="0 0 24 24">
  <path d="M17 12.25c-2.619 0-4.75 2.131-4.75 4.75s2.131 4.75 4.75 4.75 4.75-2.131 4.75-4.75-2.131-4.75-4.75-4.75zM13.75 17A3.254 3.254 0 0 1 17 13.75c.624 0 1.202.185 1.698.492l-4.456 4.456A3.222 3.222 0 0 1 13.75 17zM17 20.25a3.213 3.213 0 0 1-1.698-.492l4.456-4.456c.306.496.492 1.074.492 1.698A3.254 3.254 0 0 1 17 20.25zm-5-8.5c-2.619 0-4.75-2.131-4.75-4.75S9.381 2.25 12 2.25 16.75 4.381 16.75 7s-2.131 4.75-4.75 4.75zM10.75 17c0 1.22.35 2.36.97 3.33V21c0 .41-.34.75-.75.75H6c-1.52 0-2.75-1.23-2.75-2.75 0-3.17 2.58-5.75 5.75-5.75h2c.31 0 .58.19.69.46-.6.96-.94 2.09-.94 3.29z"/>
</svg>
