<svg width="16" height="16" fill="none">
  <g fill="#fff" clip-path="url(#a)">
    <path d="M8.098 12.518a4.42 4.42 0 0 1 2.198-3.819C6.09 5.597-.028 8.69 0 13.957v1.572c0 .26.21.47.469.47h9.33a4.413 4.413 0 0 1-1.7-3.481Z"/>
    <path d="M10.224 3.733c0-2.06-1.67-3.731-3.732-3.731-4.95.196-4.948 7.267 0 7.463a3.732 3.732 0 0 0 3.732-3.732Zm5.265 6.977-2.642 2.641a.469.469 0 0 1-.662 0l-1.004-1.004a.469.469 0 0 1 .663-.663l.672.673 2.378-2.378c-2.176-2.07-5.868-.496-5.858 2.539 0 1.919 1.56 3.48 3.48 3.48 2.687.026 4.39-3.025 2.973-5.288Z"/>
  </g>
</svg>
