<svg width="15" height="16" fill="none">
  <path d="M11.711 13.552a.557.557 0 0 1-.372-.975A6.135 6.135 0 0 0 7.254 1.864c-.494 0-.986.058-1.467.171A.558.558 0 1 1 5.535.949c.563-.133 1.14-.2 1.719-.201a7.25 7.25 0 0 1 4.827 12.664.556.556 0 0 1-.37.14Zm-4.457 1.704A7.252 7.252 0 0 1 2.65 2.4a6.72 6.72 0 0 1 1.366-.888.558.558 0 0 1 .492 1.001c-.41.201-.794.451-1.144.744a6.142 6.142 0 0 0 5.357 10.714c.44-.112.866-.272 1.271-.475a.558.558 0 0 1 .506.994c-.482.243-.99.432-1.513.564a7.517 7.517 0 0 1-1.732.202Z" fill="#fff"/>
  <path d="M9.018 8.768a.558.558 0 0 1-.355-.99A2.232 2.232 0 0 0 6.714 3.88a.558.558 0 1 1-.26-1.085A3.348 3.348 0 0 1 9.37 8.64a.554.554 0 0 1-.353.128Zm-1.764.625c-.2.001-.4-.017-.596-.055l-.04-.005a3.125 3.125 0 0 1-1.1-.43A3.3 3.3 0 0 1 3.923 5.73a3.328 3.328 0 0 1 .972-2.058.558.558 0 0 1 .789.788c-.37.366-.6.849-.65 1.366A2.192 2.192 0 0 0 6.09 7.948c.207.132.437.227.678.278.026 0 .05.007.075.012.235.048.477.054.715.018a.558.558 0 0 1 .192 1.1c-.165.026-.33.039-.497.037Z" fill="#fff"/>
  <path d="M10.974 16a.558.558 0 0 1-.5-.309L3.035.811a.558.558 0 1 1 .999-.498l7.44 14.88a.558.558 0 0 1-.5.807Zm.736-2.448a.558.558 0 0 1-.557-.532 3.873 3.873 0 0 0-1.816-3.102.558.558 0 1 1 .595-.945 4.984 4.984 0 0 1 2.336 3.996.558.558 0 0 1-.532.583h-.026Z" fill="#fff"/>
  <path d="M2.797 13.552h-.025a.558.558 0 0 1-.532-.582 5.013 5.013 0 0 1 3.657-4.596 4.409 4.409 0 0 1 .784-.148 3.44 3.44 0 0 1 1.018-.011.532.532 0 0 1 .529.556.582.582 0 0 1-.587.556 2.652 2.652 0 0 0-.819.007 3.348 3.348 0 0 0-.623.115 3.899 3.899 0 0 0-2.843 3.57.558.558 0 0 1-.559.533Z" fill="#fff"/>
</svg>
